<svg width="404" height="330" viewBox="0 0 404 330" fill="none" xmlns="http://www.w3.org/2000/svg">
<path fill-rule="evenodd" clip-rule="evenodd" d="M384.621 239L392.561 231.061C393.146 230.475 393.146 229.525 392.561 228.939C391.975 228.354 391.025 228.354 390.439 228.939L381.439 237.939C380.854 238.525 380.854 239.475 381.439 240.061L390.439 249.061C391.025 249.646 391.975 249.646 392.561 249.061C393.146 248.475 393.146 247.525 392.561 246.939L384.621 239Z" fill="#010F07"/>
<rect opacity="0.2" x="159" y="227" width="12" height="24" rx="2.2" fill="#22A45D"/>
<path fill-rule="evenodd" clip-rule="evenodd" d="M158 230.8C158 229.12 158 228.28 158.327 227.638C158.615 227.074 159.074 226.615 159.638 226.327C160.28 226 161.12 226 162.8 226H167.2C168.88 226 169.72 226 170.362 226.327C170.926 226.615 171.385 227.074 171.673 227.638C172 228.28 172 229.12 172 230.8V247.2C172 248.88 172 249.72 171.673 250.362C171.385 250.926 170.926 251.385 170.362 251.673C169.72 252 168.88 252 167.2 252H162.8C161.12 252 160.28 252 159.638 251.673C159.074 251.385 158.615 250.926 158.327 250.362C158 249.72 158 248.88 158 247.2V230.8ZM159 230.52C159 229.288 159 228.672 159.24 228.201C159.451 227.787 159.787 227.451 160.201 227.24C160.672 227 161.288 227 162.52 227H163V227.2C163 227.642 163.358 228 163.8 228H166.2C166.642 228 167 227.642 167 227.2V227H167.48C168.712 227 169.328 227 169.799 227.24C170.213 227.451 170.549 227.787 170.76 228.201C171 228.672 171 229.288 171 230.52V247.48C171 248.712 171 249.328 170.76 249.799C170.549 250.213 170.213 250.549 169.799 250.76C169.328 251 168.712 251 167.48 251H162.52C161.288 251 160.672 251 160.201 250.76C159.787 250.549 159.451 250.213 159.24 249.799C159 249.328 159 248.712 159 247.48V230.52Z" fill="#22A45D"/>
<path fill-rule="evenodd" clip-rule="evenodd" d="M97.535 306L84.1 319.435L85.5142 320.849L98.9492 307.414L97.535 306ZM93.5051 307.495L91 310C89.3431 310 88 311.343 88 313L84.5266 316.473C82.7501 314.833 82 313 82 313C82 313 84.4545 307 91 307C91.8665 307 92.7076 307.187 93.5051 307.495ZM98.2079 310.848C99.3304 312.018 100 313 100 313C100 313 95.9091 319 91 319C90.6893 319 90.3879 318.986 90.0955 318.961L98.2079 310.848Z" fill="#010F07"/>
<path fill-rule="evenodd" clip-rule="evenodd" d="M17 307C10.4545 307 8 313 8 313C8 313 10.4545 319 17 319C21.9091 319 26 313 26 313C26 313 21.9091 307 17 307ZM14 313C14 314.657 15.3431 316 17 316C18.6569 316 20 314.657 20 313C20 311.343 18.6569 310 17 310C15.3431 310 14 311.343 14 313Z" fill="#010F07"/>
<path fill-rule="evenodd" clip-rule="evenodd" d="M381.757 159.343C381.367 158.953 380.734 158.953 380.343 159.343C379.953 159.734 379.953 160.367 380.343 160.757L384.586 165L380.343 169.243C379.953 169.633 379.953 170.266 380.343 170.657C380.734 171.047 381.367 171.047 381.757 170.657L386 166.414L390.243 170.657C390.633 171.047 391.266 171.047 391.657 170.657C392.047 170.266 392.047 169.633 391.657 169.243L387.414 165L391.657 160.757C392.047 160.367 392.047 159.734 391.657 159.343C391.266 158.953 390.633 158.953 390.243 159.343L386 163.586L381.757 159.343Z" fill="#010F07"/>
<path fill-rule="evenodd" clip-rule="evenodd" d="M311 171C307.134 171 304 167.866 304 164C304 160.134 307.134 157 311 157C314.866 157 318 160.134 318 164C318 165.828 317.3 167.492 316.153 168.738L319.707 172.293C320.098 172.683 320.098 173.317 319.707 173.707C319.317 174.098 318.683 174.098 318.293 173.707L314.594 170.008C313.543 170.638 312.314 171 311 171ZM311 169C313.761 169 316 166.761 316 164C316 161.239 313.761 159 311 159C308.239 159 306 161.239 306 164C306 166.761 308.239 169 311 169Z" fill="#010F07"/>
<path fill-rule="evenodd" clip-rule="evenodd" d="M232 163.5C232 159 235 156 239.5 156C244 156 247 159.75 247 163.5C247 165.833 244.824 169.036 240.471 173.109C239.915 173.629 239.059 173.651 238.477 173.159C234.159 169.508 232 166.288 232 163.5ZM239.5 165C240.881 165 242 163.881 242 162.5C242 161.119 240.881 160 239.5 160C238.119 160 237 161.119 237 162.5C237 163.881 238.119 165 239.5 165Z" fill="#010F07"/>
<path fill-rule="evenodd" clip-rule="evenodd" d="M155.859 162.258L173.291 156.447C173.701 156.31 174.144 156.532 174.281 156.942C174.334 157.103 174.334 157.276 174.281 157.437L168.47 174.869C168.334 175.279 167.89 175.5 167.481 175.363C167.28 175.297 167.115 175.151 167.023 174.961L163.365 167.363L155.767 163.705C155.378 163.517 155.214 163.05 155.402 162.66C155.493 162.47 155.659 162.324 155.859 162.258Z" fill="#010F07"/>
<path fill-rule="evenodd" clip-rule="evenodd" d="M91 171L86.9156 173.147C86.4268 173.404 85.8221 173.216 85.5651 172.727C85.4628 172.533 85.4275 172.31 85.4647 172.093L86.2447 167.545L82.9404 164.324C82.5449 163.939 82.5368 163.306 82.9223 162.91C83.0758 162.753 83.277 162.65 83.4946 162.618L88.0611 161.955L90.1033 157.817C90.3477 157.322 90.9473 157.118 91.4426 157.363C91.6398 157.46 91.7994 157.62 91.8967 157.817L93.9389 161.955L98.5054 162.618C99.0519 162.698 99.4306 163.205 99.3512 163.752C99.3196 163.97 99.2171 164.171 99.0596 164.324L95.7553 167.545L96.5353 172.093C96.6287 172.637 96.2631 173.154 95.7188 173.248C95.502 173.285 95.279 173.25 95.0844 173.147L91 171Z" fill="#010F07"/>
<path fill-rule="evenodd" clip-rule="evenodd" d="M8.9571 161.415L16.4785 156.819C16.7987 156.623 17.2013 156.623 17.5214 156.819L25.0429 161.415C25.6374 161.778 26 162.425 26 163.122V172C26 173.105 25.1046 174 24 174L9.99998 174C8.89541 174 7.99998 173.105 7.99998 172L8 163.122C8 162.425 8.36259 161.778 8.9571 161.415ZM15 166C14.4477 166 14 166.448 14 167V170C14 170.552 14.4477 171 15 171H19C19.5523 171 20 170.552 20 170V167C20 166.448 19.5523 166 19 166H15Z" fill="#010F07"/>
<path fill-rule="evenodd" clip-rule="evenodd" d="M85.4502 234.502L85 230H84V234.5C84 236.433 85.567 238 87.5 238C89.433 238 91 236.433 91 234.5V230H90L89.5498 234.502C89.5215 234.785 89.2838 235 89 235C88.7162 235 88.4785 234.785 88.4502 234.502L88 230H87L86.5498 234.502C86.5215 234.785 86.2838 235 86 235C85.7162 235 85.4785 234.785 85.4502 234.502ZM88.5555 240.998C88.5243 240.438 88.061 240 87.5 240C86.939 240 86.4757 240.438 86.4445 240.998L86.0832 247.502C86.0817 247.529 86.081 247.555 86.081 247.581C86.081 248.365 86.7163 249 87.5 249C87.5263 249 87.5525 248.999 87.5787 248.998C88.3612 248.954 88.9603 248.285 88.9168 247.502L88.5555 240.998ZM96.5 242C97.0634 242 97.5311 242.435 97.5712 242.997L97.8931 247.504C97.9481 248.273 97.3689 248.941 96.5995 248.996C96.5664 248.999 96.5332 249 96.5 249C95.7286 249 95.1033 248.375 95.1033 247.603C95.1033 247.57 95.1045 247.537 95.1069 247.504L95.4288 242.997C95.4689 242.435 95.9366 242 96.5 242ZM98 240V230C95.7909 230 94 231.791 94 234V240H98Z" fill="#010F07"/>
<path fill-rule="evenodd" clip-rule="evenodd" d="M309 234C309 236.209 310.791 238 313 238C315.209 238 317 236.209 317 234C317 231.791 315.209 230 313 230C310.791 230 309 231.791 309 234ZM312.983 240C308.262 240 304.388 242.427 304.001 247.199C303.98 247.459 304.477 248 304.728 248H321.247C321.998 248 322.01 247.395 321.998 247.2C321.705 242.293 317.771 240 312.983 240Z" fill="#010F07"/>
<path fill-rule="evenodd" clip-rule="evenodd" d="M231 231.6C231 231.04 231 230.76 231.109 230.546C231.205 230.358 231.358 230.205 231.546 230.109C231.76 230 232.04 230 232.6 230H245.4C245.96 230 246.24 230 246.454 230.109C246.642 230.205 246.795 230.358 246.891 230.546C247 230.76 247 231.04 247 231.6V246.4C247 246.96 247 247.24 246.891 247.454C246.843 247.548 246.781 247.633 246.707 247.707L245 246L243.5 247.5L242 246L240.5 247.5L239 246L237.5 247.5L236 246L234.5 247.5L233 246L231.293 247.707C231.219 247.633 231.157 247.548 231.109 247.454C231 247.24 231 246.96 231 246.4V231.6ZM233.054 232.273C233 232.38 233 232.52 233 232.8V233.2C233 233.48 233 233.62 233.054 233.727C233.102 233.821 233.179 233.898 233.273 233.946C233.38 234 233.52 234 233.8 234H244.2C244.48 234 244.62 234 244.727 233.946C244.821 233.898 244.898 233.821 244.946 233.727C245 233.62 245 233.48 245 233.2V232.8C245 232.52 245 232.38 244.946 232.273C244.898 232.179 244.821 232.102 244.727 232.054C244.62 232 244.48 232 244.2 232H233.8C233.52 232 233.38 232 233.273 232.054C233.179 232.102 233.102 232.179 233.054 232.273Z" fill="#010F07"/>
<path fill-rule="evenodd" clip-rule="evenodd" d="M380.534 93.1174C380.534 93.1676 380.534 93.2122 380.534 93.2507C380.534 93.4379 380.533 93.6972 380.532 93.9648C380.531 94.2499 380.53 94.5442 380.53 94.7704H380.681C380.965 94.7704 381.219 94.5834 381.318 94.3018L381.318 94.3018C382.154 91.9138 383.335 90.4635 384.862 89.9509C385.927 89.5933 387.099 89.4828 388.744 89.435V93.1285C388.744 93.3092 388.809 93.4833 388.925 93.6159C389.18 93.9065 389.61 93.924 389.885 93.6548L395.782 87.8904C395.797 87.8763 395.811 87.8615 395.824 87.8461C396.076 87.5527 396.055 87.0991 395.777 86.8329L389.88 81.186C389.755 81.0663 389.592 81 389.424 81C389.048 81 388.744 81.3211 388.744 81.7173V85.4335C386.153 85.555 383.986 85.8216 382.538 87.3587C380.5 89.5218 380.525 92.2184 380.534 93.1174ZM384.97 82.8287C384.97 82.3005 384.564 81.8723 384.064 81.8723H379.624C377.623 81.8723 376 83.5851 376 85.6978V97.1745C376 99.2872 377.623 101 379.624 101H390.497C392.499 101 394.121 99.2872 394.121 97.1745V95.2617C394.121 94.7335 393.716 94.3053 393.215 94.3053C392.715 94.3053 392.309 94.7335 392.309 95.2617V97.1745C392.309 98.2309 391.498 99.0872 390.497 99.0872H379.624C378.623 99.0872 377.812 98.2309 377.812 97.1745V85.6978C377.812 84.6414 378.623 83.7851 379.624 83.7851H384.064C384.564 83.7851 384.97 83.3569 384.97 82.8287Z" fill="#010F07"/>
<path fill-rule="evenodd" clip-rule="evenodd" d="M313.125 83.125C313.125 82.5037 312.621 82 312 82C311.379 82 310.875 82.5037 310.875 83.125V89.875H304.125C303.504 89.875 303 90.3787 303 91C303 91.6213 303.504 92.125 304.125 92.125H310.875V98.875C310.875 99.4963 311.379 100 312 100C312.621 100 313.125 99.4963 313.125 98.875V92.125H319.875C320.496 92.125 321 91.6213 321 91C321 90.3787 320.496 89.875 319.875 89.875H313.125V83.125Z" fill="#010F07"/>
<rect x="231" y="90" width="16" height="2" rx="1" fill="#010F07"/>
<path fill-rule="evenodd" clip-rule="evenodd" d="M167 86C166.667 89.3333 165.667 91.1168 164 91.3503C164 91.3503 165.5 85.5 163.5 82.5C163.5 82.5 163.288 85.7144 161.145 89.5717C160.14 91.3798 159 92.5987 159 95C159 98.4287 162.511 100.201 165.006 100.201C167.5 100.201 171 99.0006 171 94.8005C171 93.0734 169.667 90.1399 167 86Z" fill="#010F07"/>
<path fill-rule="evenodd" clip-rule="evenodd" d="M91 99.0219L87.4735 100.729L85.8691 97.1544L82.0705 96.195L83.1389 92.4257L80.8457 89.2491L84.0871 87.0484L84.3723 83.1409L88.2699 83.5386L91 80.7286L93.7301 83.5386L97.6277 83.1409L97.9129 87.0484L101.154 89.2491L98.8611 92.4257L99.9295 96.195L96.1309 97.1544L94.5265 100.729L91 99.0219Z" fill="#010F07"/>
<path fill-rule="evenodd" clip-rule="evenodd" d="M21.8 98C17.8236 98 14.6 94.866 14.6 91C14.6 87.134 17.8236 84 21.8 84C25.7765 84 29 87.134 29 91C29 94.866 25.7765 98 21.8 98ZM21.7704 86.7222H21.838C22.0435 86.7222 22.2156 86.8736 22.236 87.0724L22.6 90.6111L25.1985 92.0547C25.3231 92.1239 25.4 92.2528 25.4 92.3923V92.5556C25.4 92.7196 25.2632 92.8526 25.0945 92.8526C25.0673 92.8526 25.0403 92.8491 25.0141 92.8421L21.3189 91.8623C21.1338 91.8133 21.0106 91.6433 21.0254 91.4573L21.3716 87.0813C21.3876 86.8787 21.5614 86.7222 21.7704 86.7222ZM11.8 85.5556H7.8C7.13726 85.5556 6.6 86.0779 6.6 86.7222C6.6 87.3666 7.13726 87.8889 7.8 87.8889H11.8C12.4627 87.8889 13 87.3666 13 86.7222C13 86.0779 12.4627 85.5556 11.8 85.5556ZM11.8 94.8889H7.8C7.13726 94.8889 6.6 95.4112 6.6 96.0556C6.6 96.6999 7.13726 97.2222 7.8 97.2222H11.8C12.4627 97.2222 13 96.6999 13 96.0556C13 95.4112 12.4627 94.8889 11.8 94.8889ZM6.2 90.2222H9.4C10.0627 90.2222 10.6 90.7446 10.6 91.3889C10.6 92.0332 10.0627 92.5556 9.4 92.5556H6.2C5.53726 92.5556 5 92.0332 5 91.3889C5 90.7446 5.53726 90.2222 6.2 90.2222Z" fill="#010F07"/>
<path fill-rule="evenodd" clip-rule="evenodd" d="M13.3017 236L17 231.562L20.6983 236H13.3017ZM11 236C10.9999 235.774 11.0759 235.547 11.2318 235.36L16.2318 229.36C16.6316 228.88 17.3684 228.88 17.7682 229.36L22.7682 235.36C22.9241 235.547 23.0001 235.774 23 236H25.5C26.0523 236 26.5 236.448 26.5 237C26.5 237.132 26.4739 237.263 26.4231 237.385L22.7692 246.154C22.3034 247.272 21.2111 248 20 248H14C12.7889 248 11.6966 247.272 11.2308 246.154L7.57692 237.385C7.36451 236.875 7.60558 236.289 8.11539 236.077C8.23726 236.026 8.36798 236 8.5 236H11ZM17 244C18.1046 244 19 243.105 19 242C19 240.895 18.1046 240 17 240C15.8954 240 15 240.895 15 242C15 243.105 15.8954 244 17 244Z" fill="#010F07"/>
<path fill-rule="evenodd" clip-rule="evenodd" d="M376 12C376 10.8954 376.895 10 378 10H394C395.105 10 396 10.8954 396 12V13H376V12ZM376 16H396V22C396 23.1046 395.105 24 394 24H378C376.895 24 376 23.1046 376 22V16ZM391 19C390.448 19 390 19.4477 390 20C390 20.5523 390.448 21 391 21H393C393.552 21 394 20.5523 394 20C394 19.4477 393.552 19 393 19H391Z" fill="#010F07"/>
<path fill-rule="evenodd" clip-rule="evenodd" d="M313.485 26V16.9989H316.147L316.5 13.8971H313.485L313.489 12.3446C313.489 11.5356 313.572 11.1022 314.817 11.1022H316.481V8H313.818C310.62 8 309.494 9.50472 309.494 12.0352V13.8975H307.5V16.9993H309.494V26H313.485Z" fill="#010F07"/>
<path fill-rule="evenodd" clip-rule="evenodd" d="M231.5 20C231.5 21.6569 230.157 23 228.5 23H248.5C246.843 23 245.5 21.6569 245.5 20V15C245.5 11.134 242.366 8 238.5 8C234.634 8 231.5 11.134 231.5 15V20ZM238.5 26.9965C239.53 26.9965 240.483 26.2372 241 25.0035H236C236.517 26.2372 237.47 26.9965 238.5 26.9965Z" fill="#010F07"/>
<path fill-rule="evenodd" clip-rule="evenodd" d="M173 23H161C160.448 23 160 23.4477 160 24C160 24.5523 160.448 25 161 25H173V26C173 26.6269 172.642 27 172 27H160C158.254 27 157 25.6942 157 24V10C157 8.30584 158.254 7 160 7H172C172.642 7 173 7.3731 173 8V23Z" fill="#010F07"/>
<path fill-rule="evenodd" clip-rule="evenodd" d="M92.9981 12C92.9981 12.5523 93.4458 13 93.998 13C94.5502 13 94.9979 12.5523 94.9979 12V11C94.9979 8.79086 93.2072 7 90.9983 7H84.9997C82.7907 7 81 8.79086 81 11V23C81 25.2091 82.7907 27 84.9997 27H91.0052C93.2142 27 95.0049 25.2091 95.0049 23V22C95.0049 21.4477 94.5572 21 94.0049 21C93.4527 21 93.005 21.4477 93.005 22V23C93.005 24.1046 92.1097 25 91.0052 25H84.9997C83.8952 25 82.9998 24.1046 82.9998 23V11C82.9998 9.89543 83.8952 9 84.9997 9H90.9983C92.1027 9 92.9981 9.89543 92.9981 11V12ZM97.5846 16H87.9951C87.4429 16 86.9951 16.4477 86.9951 17C86.9951 17.5523 87.4429 18 87.9951 18H97.5846L96.2913 19.2929C95.9006 19.6834 95.9006 20.3166 96.2913 20.7071C96.6819 21.0976 97.3153 21.0976 97.706 20.7071L100.707 17.7071C101.098 17.3166 101.098 16.6834 100.707 16.2929L97.706 13.2929C97.3153 12.9024 96.6819 12.9024 96.2913 13.2929C95.9006 13.6834 95.9006 14.3166 96.2913 14.7071L97.5846 16Z" fill="#010F07"/>
<path fill-rule="evenodd" clip-rule="evenodd" d="M24.1429 14.25C25.7208 14.25 27 15.4812 27 17V25.25C27 26.7688 25.7208 28 24.1429 28H9.85714C8.27919 28 7 26.7688 7 25.25V17C7 15.4812 8.27919 14.25 9.85714 14.25V12.875C9.85714 9.07804 13.0551 6 17 6C20.9449 6 24.1429 9.07804 24.1429 12.875V14.25ZM17 8.75C14.6331 8.75 12.7143 10.5968 12.7143 12.875V14.25H21.2857V12.875C21.2857 10.5968 19.3669 8.75 17 8.75Z" fill="#010F07"/>
</svg>
